<svg xmlns="http://www.w3.org/2000/svg" version="1.1" xmlns:xlink="http://www.w3.org/1999/xlink" viewBox="0 0 7.087341809241799 7.495379112124972"><g transform="matrix(1,0,0,1,0.6073278870427741,5.8200512250821985)"><g clip-path="url(#SvgjsClipPath1001)"><g clip-path="url(#SvgjsClipPath100071741875-31e0-4dba-90fc-38526f302ab9)"><path d=" M 2.9992947329889494 -5.2119907091661615 C 1.1951303583630666 -5.257003416878563 -0.06318195294127255 -3.21867009184644 0.7528297650074518 -1.6270023972983134 C 0.8796938695730407 -1.6965093579413049 1.044467070473317 -1.6917550818333242 1.1687038119266009 -1.6183696327864534 C 1.273270083517918 -1.5464994354816 1.385343106858678 -1.4865983367994695 1.501086097721388 -1.4348712566889548 C 1.8328706236546457 -1.3062138725387764 2.178500936147987 -1.211976335299008 2.5307483112945413 -1.1605828885995804 C 3.068329046299569 -1.0818593049753273 3.5781626026159143 -0.8757989694531139 4.115729436228814 -0.799257904393051 C 4.234141494380214 -0.8020381828187713 4.340445439987606 -0.7467384449312062 4.4244793554049835 -0.6667498346232517 C 6.403898580596104 -1.9731748640846698 5.4097544239115205 -5.261910608299958 2.9992947329889494 -5.2119907091661615 Z" fill="#829174" transform="matrix(1,0,0,1,0,0)" fill-rule="nonzero"></path></g><g clip-path="url(#SvgjsClipPath100071741875-31e0-4dba-90fc-38526f302ab9)"><path d=" M 1.1656733084425666 -1.576776667537687 L 0.5383590872474364 -1.653276028421364 L 0.5375806092882349 -1.7890926295177696 L 3.3842381824219663 -2.8722056958253837 L 3.914645799088637 -2.0561939778766596 L 3.5168296605445377 -1.7195856688747782 L 1.5163081221022034 -1.723408551710143 L 1.1656733084425666 -1.576776667537687 Z" fill="#020202" transform="matrix(1,0,0,1,0,0)" fill-rule="nonzero"></path></g><g clip-path="url(#SvgjsClipPath100071741875-31e0-4dba-90fc-38526f302ab9)"><path d=" M 1.854876527394217 -4.615718296594191 C 1.0871026401317287 -4.153580416671067 0.6284262068486254 -3.2194068656292565 0.8205295446737263 -2.331497147591421 C 0.8718395830203828 -2.346607960835208 0.9226213684661525 -2.364401742759814 0.9707757907996176 -2.387561462046058 C 0.9819803128552677 -2.446614575808345 0.97055336852556 -2.507669490037149 0.9755439682997266 -2.5674176734058647 C 0.9762251365140278 -2.6039227291355638 1.0243934602396214 -2.6030886456078477 1.049707895305799 -2.615349673465272 C 1.0502824861804476 -2.793482112201131 1.0502546833961903 -2.9716284523291194 1.0496244869530273 -3.1497886938492363 C 1.1129036239224073 -3.1479398086961328 1.1761271553232726 -3.147786893382718 1.2393784895083955 -3.1497886938492363 C 1.237070858415048 -3.1950516266199522 1.2353192830068445 -3.2403701649591827 1.2354721983202592 -3.2856330977298986 C 1.3425129177104667 -3.3222910687730125 1.4491504967289448 -3.364092554903708 1.547933789194765 -3.419698123418102 C 1.5499216882691542 -3.539959066722606 1.5444862439468725 -3.6603729253405257 1.5486288588011947 -3.7806338686450296 C 1.5480171975475365 -3.805795388397793 1.5792119214841112 -3.8120093106792763 1.5958935920384294 -3.8242703385367 C 1.68117863274738 -3.867461963880255 1.7614869750742932 -3.9203845637138293 1.847300268684131 -3.9622555568051676 C 1.9382709787736787 -3.9086378873651637 2.0221797816618983 -3.8412300369335903 2.1089244685443522 -3.7801473199205287 C 2.1309303722839235 -3.789878294410548 2.152797262102209 -3.8001653245857105 2.174497335214951 -3.8107303826034453 C 2.1746502505283654 -3.6338629705512884 2.1708134663008725 -3.456856544577845 2.1766520509948837 -3.2801420478391026 C 2.213226613685226 -3.294168552496859 2.2483554315941943 -3.3127408123806656 2.287251526770012 -3.3200251418560516 C 2.3058932936144627 -3.6226584484956383 2.287779779670899 -3.9280998363452015 2.294077110305154 -4.2313448042384465 C 2.3261337205537016 -4.283196996878118 2.381655880715324 -4.316866168613584 2.416631783310877 -4.3667999691395085 C 2.4235824793751766 -4.459758578303446 2.414866306510545 -4.553704186308514 2.4214694677716295 -4.646746203825223 C 2.4211636371448004 -4.676578591333195 2.4687342010088638 -4.684933328002483 2.471931521198442 -4.65202873283409 C 2.479062935360413 -4.554315847562172 2.4697907068106377 -4.455838385723182 2.4766857973064225 -4.357903078177206 C 2.533681505033676 -4.314336115246179 2.592428788169133 -4.273104586192756 2.6508702406777602 -4.231497719551861 C 2.672653722143274 -4.2193757056157235 2.666592715175205 -4.192003864514513 2.667968952995937 -4.171290790242901 C 2.6668429402335203 -4.0119808364491645 2.6683859947597948 -3.8527125868318124 2.6662868845483763 -3.693388731645947 C 2.7212807918091113 -3.717924688752923 2.7741199832899137 -3.7468395843804077 2.828196398670161 -3.773307834993259 C 2.8280434833567463 -3.8583704534281527 2.8242066991292534 -3.9436554941371034 2.8285856376497622 -4.028634704219225 C 2.920237515953611 -4.061386384074203 3.003743178470102 -4.1130717600083315 3.09034885143127 -4.156638722939359 C 3.0913497516645285 -4.26655239670281 3.0915536387490814 -4.376438267682004 3.090960512684928 -4.486296335876941 C 3.0888892052577677 -4.5434310575254795 3.1580764338818015 -4.5632961468772475 3.1790119304274707 -4.6096155854497365 C 3.186532583569042 -4.662927424262912 3.1802352529347875 -4.717073346603803 3.18169489910829 -4.77076052300445 C 3.2023662692035155 -4.771441691218751 3.222884723985327 -4.7744304905264 3.243444882943524 -4.776668614659104 C 3.2458915279581575 -4.830967452313408 3.2462251613692437 -4.8852662899677135 3.2430556439639227 -4.9394956206613765 C 2.761372406707989 -4.991764855064906 2.2678173805742317 -4.864984158852089 1.854876527394217 -4.615718296594191 Z" fill="#fff9e1" transform="matrix(1,0,0,1,0,0)" fill-rule="nonzero"></path></g><g clip-path="url(#SvgjsClipPath100071741875-31e0-4dba-90fc-38526f302ab9)"><path d=" M 3.3080029479887334 -4.932058375872576 C 3.307613709009132 -4.8785241147853435 3.3065433018152306 -4.824920346737469 3.3083087786155625 -4.771386085650236 C 3.3313850895490353 -4.770927339709992 3.3545587102274093 -4.770315678456334 3.3777184295136538 -4.769314778223075 C 3.379191977079285 -4.61810933604031 3.350596813470758 -4.6277290993933 3.4693703078175027 -4.521494660746551 C 3.470593630324819 -4.2308165513375595 3.4699124621105177 -3.9401245405364387 3.470371208050761 -3.6494464311274477 C 3.514772254509505 -3.678430833715575 3.6082730179664573 -3.6793622269881907 3.5989173810639103 -3.749619862806127 C 3.5969989889501637 -3.8537690926335864 3.6003075202767705 -3.957918322461045 3.5968460736367494 -4.062081453680633 C 3.6403435296071343 -4.099337184585276 3.6936414670281805 -4.1229278470275075 3.736888697940249 -4.160030662618737 C 3.745021012335479 -4.323997582775554 3.734442052925615 -4.489590965811418 3.7413371434214002 -4.653724702673779 C 3.7441174218471205 -4.689242759562348 3.7972485425626226 -4.680137347718116 3.79380099731473 -4.647052034452052 C 3.7950243198220472 -4.494803987859643 3.7905758743408953 -4.342264012032533 3.7968732049751504 -4.190015965440123 C 3.805770095937454 -4.188403403953206 3.8147364938603996 -4.186721335505646 3.8237863001361174 -4.1850253656659575 C 3.824787200369376 -4.1729867600825905 3.8257881006026357 -4.160864746146453 3.826941916149309 -4.148742732210316 C 3.8424280669805677 -4.151662024557321 3.857844710851183 -4.154581316904327 3.8734142700352128 -4.157264285585146 C 3.8819219220179155 -4.111709423579729 3.8605276795320025 -4.05625677037875 3.893126444073565 -4.018361575436192 C 3.8987982120620335 -3.8717991982243785 3.8986870009250048 -3.7247641736801937 3.8956564974409704 -3.578187895076253 C 3.9328566227771007 -3.5936184403389966 3.9712105636599024 -3.6062409043917643 4.010773925657894 -3.6139283742388795 C 4.023994149572191 -3.7034116353706663 4.011816530067538 -3.794910598361101 4.0179192412119935 -3.8850055207465477 C 4.10251384611189 -3.884162169624079 4.187136253796044 -3.884189972408336 4.271786464264457 -3.885088929099319 C 4.273385124359246 -3.8385470682527716 4.2700765930326385 -3.7917549823479093 4.273774363338845 -3.7452687270698766 C 4.324472740431844 -3.762284031035281 4.373336133763868 -3.7843038361669805 4.423645271877264 -3.8025563640318305 C 4.426425550302985 -3.7083744323605767 4.42310311758425 -3.614192500689323 4.426328240558084 -3.5200800759787114 C 4.5175213729216885 -3.530895359054761 4.603584891589842 -3.5651761920438845 4.693387884740587 -3.582886565615719 C 4.685047049463428 -3.3674149876224444 4.699838130688257 -3.1505532704163097 4.685047049463428 -2.9357906634215936 C 4.813287391849748 -2.830793448674289 4.914420019585301 -2.6974095912003877 5.005029293479505 -2.559813611911522 C 5.078901291250877 -2.5204031652269454 5.146392550035222 -2.4704693647010196 5.217108931793402 -2.425748586223319 C 5.430467498183132 -3.605865566804291 4.472592073562062 -4.779143062457994 3.3080029479887334 -4.932058375872576 Z" fill="#fff9e1" transform="matrix(1,0,0,1,0,0)" fill-rule="nonzero"></path></g><g clip-path="url(#SvgjsClipPath100071741875-31e0-4dba-90fc-38526f302ab9)"><path d=" M 4.112254088196663 -2.9249892817376715 C 4.454506362402755 -2.954932880382672 4.641243762866217 -2.8961994986393447 4.819014765406733 -2.588102944893219 C 4.865056176136651 -2.4959923206491257 5.050876084719626 -2.2669807867225957 4.9251796970928385 -2.1896890464875893 C 4.866501920918024 -2.15417098959902 4.795173877906187 -2.172506925816642 4.730560207292461 -2.1690454791766207 C 4.652253665432067 -2.171825757602341 4.571875816144511 -2.159078181020415 4.4952513427316765 -2.179707846939256 C 4.366663465542143 -2.2134326242432354 4.164648435129351 -2.5961935551120634 4.061361091613865 -2.7201105645463888 C 3.996969843274198 -2.79666553099858 3.9970671530190973 -2.905026882641004 4.112254088196663 -2.9249892817376715 Z" fill="#efc307" transform="matrix(1,0,0,1,0,0)" fill-rule="nonzero"></path></g><g clip-path="url(#SvgjsClipPath100071741875-31e0-4dba-90fc-38526f302ab9)"><path d=" M 3.078741189003889 -2.709615013489297 C 3.964968838594164 -3.09282078890624 4.044178970942917 -1.7531992350417296 4.602472780219556 -1.404830348299054 C 4.826855150567262 -1.2558908330332512 5.215802200933315 -1.3138457368173784 5.2581180385727695 -1.6196624622544133 C 5.395005046863078 -0.9938356900170424 4.882933366414028 -0.7792259983357415 4.355764774113322 -0.9587068721080749 C 4.034712122903342 -1.0610767237430725 3.7607851910093104 -1.2733787843310278 3.435492615200108 -1.3653364932617063 C 2.5285518913382226 -1.5643905271511067 1.5894850502671447 -1.579167706983807 0.6691155816090322 -1.673433047007832 C 0.6689626662956176 -1.6798693915633738 0.6687263426294314 -1.6863196375110432 0.6685734273160169 -1.692686475105941 C 1.792765107363639 -1.6679837012934216 2.95842464013087 -1.7880222223238684 4.051727426868746 -1.4812184980457026 C 4.018127762093923 -1.570729561961747 3.976256769002585 -1.6568625875905427 3.9372077585133525 -1.7440660204132405 C 3.4985910340718163 -1.921614600679698 2.621913640873889 -1.8040088232717566 2.2086391542827877 -1.9529066343611734 C 2.434328255490582 -1.9949861483344407 3.608634454161801 -2.132693338760336 3.8049916179782524 -2.02455440939197 C 3.4077037323350403 -2.933316215622703 2.9170540971561607 -2.4166709771633443 2.206123002307511 -2.2600161892661688 C 1.8471890575471008 -2.155491621851238 1.4894506325097503 -2.037482704071567 1.1259848339154173 -1.9530734510667167 C 1.1409427318457892 -1.9729385404184838 1.1560535450895757 -1.9926507144568362 1.1719289349004347 -2.0116678188887587 C 1.8091780176701373 -2.23960431182401 2.444782102371289 -2.4722533766908557 3.078741189003889 -2.709615013489297 Z" fill="#c10808" transform="matrix(1,0,0,1,0,0)" fill-rule="nonzero"></path></g><g clip-path="url(#SvgjsClipPath100071741875-31e0-4dba-90fc-38526f302ab9)"><path d=" M 5.040297125309762 -1.9892726761695867 C 5.203916510663365 -2.011348086869801 5.177615076756057 -1.7450947234307557 5.01988988166498 -1.8223030553129913 C 4.95531791522764 -1.8589610263561056 4.9639506797395 -1.9730080473791265 5.040297125309762 -1.9892726761695867 Z" fill="#efc307" transform="matrix(1,0,0,1,0,0)" fill-rule="nonzero"></path></g><g clip-path="url(#SvgjsClipPath100071741875-31e0-4dba-90fc-38526f302ab9)"><path d=" M 4.518216442528122 -1.9822941773210303 C 4.594062437981754 -2.010819833968914 4.6661689589527935 -1.9180975484711626 4.62912174893008 -1.849521981100787 C 4.5364828717851005 -1.7090484136413004 4.371918191766753 -1.9125091888354668 4.518216442528122 -1.9822941773210303 Z" fill="#efc307" transform="matrix(1,0,0,1,0,0)" fill-rule="nonzero"></path></g><g clip-path="url(#SvgjsClipPath100071741875-31e0-4dba-90fc-38526f302ab9)"><path d=" M 5.005070997655894 -2.559883118872164 C 4.730240475273504 -3.0534937505744355 4.102453606746002 -3.329575398248399 3.56699978473665 -3.1034275511003604 C 2.5609699377821142 -2.6671879647128156 1.5494490409367818 -2.242931378340121 0.5368299341132903 -1.8224976748027921 C 0.5123634839669571 -1.8060106237382736 0.5446425164895626 -1.804425865035614 0.5596004144199344 -1.8073868615590056 C 1.4069180674422626 -2.0862348862665607 2.2431285081538404 -2.3974314504573635 3.078741189003889 -2.709656717665683 C 3.2072873620170377 -2.7572133801376184 3.3466488181062366 -2.8165028175660907 3.4850371767464337 -2.7722129822443766 C 3.9004107735489537 -2.602407477393547 4.074734230841576 -2.1313588051159904 4.280530439913347 -1.765613178212568 C 4.357683166227068 -1.6230265991495347 4.458621174472821 -1.4856530421347252 4.602500583003814 -1.404830348299054 C 4.827397304860278 -1.255724016327708 5.215065427150502 -1.3139986521307923 5.258118038572771 -1.6196485608622848 C 5.392850331083147 -0.9894150473201488 4.885560729526334 -0.7811860946258742 4.355764774113322 -0.9586651679316898 C 4.0347121229033425 -1.0610628223509453 3.760785191009312 -1.2733648829388997 3.4354926152001095 -1.3653642960459629 C 2.456139539740354 -1.5605537429236125 1.4466899503221828 -1.6213723334862302 0.4505439931710805 -1.6697491780937526 C 0.4516978087177543 -1.6655787604551735 0.45399153841897294 -1.657237925178014 0.4552148609262897 -1.6530675075394345 C 1.7436792917575585 -1.3166538180273544 3.0064817527194347 -0.8891999114650835 4.2884264306423905 -0.5307386140370456 C 4.313198711415553 -0.5237879179727463 4.339277723048804 -0.5265681963984656 4.363354934215536 -0.5350341442047828 C 4.446957906476927 -0.5624198866981214 4.529254147878229 -0.5937119203795955 4.612314965846604 -0.6227797313204952 C 4.630581395103582 -0.6304532997754819 4.650210160789164 -0.6248510387476554 4.668309773340599 -0.6193321860726035 C 4.74615756926075 -0.5947128206128554 4.824769941747974 -0.5725401001677408 4.902089484767238 -0.5460857509470181 C 4.986985286496588 -0.5031304492696496 5.064151914202437 -0.5835082985572049 5.145906001310724 -0.5993836883680643 C 5.146601070917154 -0.6220151547534227 5.146823493191212 -0.644563212786009 5.146906901543983 -0.6670278624658241 C 5.063303929282593 -0.6885889216572796 4.979937280687388 -0.7110535713370947 4.896487223739412 -0.7330733764687949 C 5.711845576258092 -1.0261564267160344 5.341317870462431 -2.0200086541659172 5.005070997655894 -2.559883118872164 Z M 4.5906148927338615 -1.641598859033341 C 4.55195512122423 -1.628865183843545 4.527419164117254 -1.6907680829921934 4.564202247689525 -1.7084089496033847 C 4.604349468156918 -1.7276484763093647 4.631040141043826 -1.6578634878238012 4.5906148927338615 -1.641598859033341 Z M 4.629121748930079 -1.8495358824929151 C 4.53658018153 -1.7091318219940717 4.37194599455101 -1.9124257804826938 4.5182164425281215 -1.9822941773210303 C 4.594062437981754 -2.010819833968914 4.6661689589527935 -1.9180975484711626 4.629121748930079 -1.8495358824929151 Z M 4.730601911468847 -2.1690593805687493 C 4.596467378820003 -2.1678082552771754 4.446109921557082 -2.1468171531629916 4.368053604755002 -2.283050796023256 C 4.264516036181201 -2.4277781894740937 4.162813451368375 -2.5738957221377907 4.06141669718238 -2.720152268722774 C 3.9965667029024683 -2.7972771922522384 3.997470293390826 -2.904860065935461 4.112267989588792 -2.9250170845219285 C 4.454242235952313 -2.9550440915197007 4.641327171218989 -2.896199498639344 4.819028666798861 -2.588158550461732 C 4.936537134461904 -2.3881036163390736 5.123107718219822 -2.132721141544593 4.730588010076719 -2.1690593805687493 Z M 5.091468149735133 -1.643128012167487 C 5.050055902584038 -1.6482715272550679 5.050431240171511 -1.7110085099314327 5.092774880595221 -1.7137748869650244 C 5.13493780292126 -1.7129269020451798 5.1336310720611715 -1.6422105202869992 5.091454248343004 -1.643128012167487 Z M 5.019889881664979 -1.8223169567051198 C 4.95531791522764 -1.8589749277482337 4.963978482523757 -1.973021948771255 5.040297125309762 -1.9892865775617148 C 5.203819200918464 -2.0113758896540577 5.177712386500957 -1.745108624822885 5.019889881664979 -1.8223169567051198 Z" fill="#000000" transform="matrix(1,0,0,1,0,0)" fill-rule="nonzero"></path></g><g clip-path="url(#SvgjsClipPath100071741875-31e0-4dba-90fc-38526f302ab9)"><path d=" M 4.465293842694548 -0.40187270900493743 C 3.1091852377655194 -0.8125615366601195 1.7620152279751797 -1.258615505890456 0.3933953701304125 -1.625111807968823 C 1.647926502775773 -1.1008347052308638 3.0116391691991446 -0.7318917581378637 4.298630052464782 -0.2500000000000009 C 4.364661665075625 -0.25098699884113085 4.4239511025040965 -0.29547145365264615 4.486771493533233 -0.31511412073035583 C 4.4853813543203715 -0.34425143863189867 4.507095328825243 -0.39564488533132725 4.465293842694548 -0.40187270900493743 Z" fill="#000000" transform="matrix(1,0,0,1,0,0)" fill-rule="nonzero"></path></g><g clip-path="url(#SvgjsClipPath100071741875-31e0-4dba-90fc-38526f302ab9)"><path d=" M 3.8050055193703827 -2.024554409391969 C 3.6488789843740945 -2.354740275230438 3.409260688253444 -2.6943651863242244 3.003048108863671 -2.50626544943216 C 3.001046308397153 -2.352488249705605 3.002047208630412 -2.1984886277049918 3.0038960937835157 -2.0446280196256654 C 3.2703996822808747 -2.0806882308072496 3.540962477279785 -2.078825444262017 3.8050055193703827 -2.024554409391969 Z" fill="#efc307" transform="matrix(1,0,0,1,0,0)" fill-rule="nonzero"></path></g><g clip-path="url(#SvgjsClipPath100071741875-31e0-4dba-90fc-38526f302ab9)"><path d=" M 2.565960537556281 -2.370921495668126 C 2.57430137283344 -2.2474354293897867 2.5686435062371005 -2.1234767157790753 2.569560998117588 -1.9997543258345498 C 2.6706519216767552 -2.005314882685989 2.770894860316078 -2.0213848919866484 2.871985783875246 -2.0270566599751163 C 2.8702898140355573 -2.1727154466985708 2.871679953248417 -2.3183603320298958 2.8715270379350026 -2.4640886257139925 C 2.7693703409793082 -2.43386699922642 2.6675148408530682 -2.4028112892111313 2.565960537556281 -2.370921495668126 Z" fill="#efc307" transform="matrix(1,0,0,1,0,0)" fill-rule="nonzero"></path></g><g clip-path="url(#SvgjsClipPath100071741875-31e0-4dba-90fc-38526f302ab9)"><path d=" M 2.438401363384262 -2.3304962473581625 C 2.3614710593445984 -2.3052652206447557 2.283011602170789 -2.285247215979574 2.2061508050917693 -2.2600161892661688 C 2.205469636877468 -2.1603849118805045 2.2066929593847844 -2.0606702261420677 2.208152605558287 -1.9610528501485325 C 2.2846102622655784 -1.9663353791574 2.360400652150697 -1.9778457318398783 2.4367053935445733 -1.984518400061606 C 2.4376228854250606 -2.099872151944715 2.437400463151003 -2.2152259038278244 2.438401363384262 -2.3304962473581625 Z" fill="#efc307" transform="matrix(1,0,0,1,0,0)" fill-rule="nonzero"></path></g><g clip-path="url(#SvgjsClipPath100071741875-31e0-4dba-90fc-38526f302ab9)"><path d=" M 2.0816777399722994 -1.943259068223926 C 2.082984470832388 -2.035522607781433 2.0816777399722994 -2.1278695556917127 2.084124384986933 -2.2201330952492198 C 2.022082471916998 -2.2086505453509973 1.9624454996853111 -2.1864917262980117 1.9020161481022941 -2.16905938056875 C 1.9049215390571712 -2.0879864616747636 1.903475794275797 -2.0067606274673633 1.9031699636489678 -1.9257016099655062 C 1.9627096261357546 -1.930831223660959 2.021999063564227 -1.939185960330247 2.0816777399722994 -1.943259068223926 Z" fill="#efc307" transform="matrix(1,0,0,1,0,0)" fill-rule="nonzero"></path></g><g clip-path="url(#SvgjsClipPath100071741875-31e0-4dba-90fc-38526f302ab9)"><path d=" M 1.814687602750439 -2.1421323840156536 C 1.7660327303003447 -2.1280224710051265 1.7169052105178784 -2.1152887958153306 1.6684310561654554 -2.1003308978849584 C 1.6675830712456112 -2.0343687922347597 1.6681947324992692 -1.968490094937331 1.6714198554731043 -1.9025974962477759 C 1.7195047708459257 -1.9061284498484392 1.7676035876108764 -1.9112719649360206 1.815452179317512 -1.9177083094915623 C 1.81269970367605 -1.9924977991434218 1.8166755018248284 -2.0673428943637955 1.814687602750439 -2.1421323840156536 Z" fill="#efc307" transform="matrix(1,0,0,1,0,0)" fill-rule="nonzero"></path></g><g clip-path="url(#SvgjsClipPath100071741875-31e0-4dba-90fc-38526f302ab9)"><path d=" M 1.5993967428548364 -2.079159077673104 C 1.5664643449021864 -2.0752944906613533 1.5345884527513107 -2.0614765068855263 1.5026013494634056 -2.0525518131389666 C 1.4930232902868013 -1.9977108211916463 1.5042139109503232 -1.941257267757408 1.5026013494634056 -1.885735107595786 C 1.5359646905720419 -1.8885153860215063 1.5694809469940925 -1.8916292978583118 1.6029972034161435 -1.8943122665391314 C 1.6023160352018417 -1.955770321139664 1.610754180223901 -2.0184934024239003 1.5993967428548364 -2.079159077673104 Z" fill="#efc307" transform="matrix(1,0,0,1,0,0)" fill-rule="nonzero"></path></g><g clip-path="url(#SvgjsClipPath100071741875-31e0-4dba-90fc-38526f302ab9)"><path d=" M 1.3548017483521475 -2.0106669186554993 C 1.3604874177327444 -1.9643474800830094 1.3588748562458268 -1.91752759139389 1.3578044490519248 -1.8709996319394717 C 1.387198705278634 -1.8714914862735048 1.4165189782479537 -1.8741071278012704 1.4455361347755087 -1.8788261157078727 C 1.4455361347755091 -1.9315123918752608 1.4450773888352653 -1.98428207639542 1.446926273988369 -2.0368988456021646 C 1.4159956765022375 -2.0291418687944063 1.3853848110350637 -2.0199669499895316 1.3548017483521475 -2.0106669186554993 Z" fill="#efc307" transform="matrix(1,0,0,1,0,0)" fill-rule="nonzero"></path></g><g clip-path="url(#SvgjsClipPath100071741875-31e0-4dba-90fc-38526f302ab9)"><path d=" M 1.3148352459824273 -1.9949444441580546 C 1.2870324617252304 -1.9953892887061695 1.2599108456823351 -1.9860892573721376 1.2339986507546277 -1.9767753246459763 C 1.2356807192021881 -1.9358913303957683 1.2369040417095047 -1.8948544208321456 1.2387529268626083 -1.8539009196212954 C 1.263066461695527 -1.8561251423618708 1.287296588175674 -1.8584188720630892 1.3115406160479492 -1.86118524909668 C 1.3130141636135808 -1.9057253094767104 1.3120549675567075 -1.950390482385897 1.3148352459824273 -1.9949444441580546 Z" fill="#efc307" transform="matrix(1,0,0,1,0,0)" fill-rule="nonzero"></path></g><g clip-path="url(#SvgjsClipPath100071741875-31e0-4dba-90fc-38526f302ab9)"><path d=" M 1.1935177968761492 -1.9643474800830094 C 1.176836126321831 -1.9608999348351177 1.1601544557675132 -1.9576748118612826 1.1435839963502237 -1.9542133652212614 C 1.1367630466124583 -1.9503858485885206 1.1299374630773165 -1.9464749236030081 1.1231072457447984 -1.942480590264724 C 1.126096045052447 -1.9085055879024297 1.1267077063061053 -1.8742942618739495 1.1272776633833779 -1.8401663441982405 C 1.148671905869291 -1.8412506527842711 1.1701495567079752 -1.8423905669388159 1.1916272075466596 -1.8433914671720757 C 1.1935873038367921 -1.8837333071292672 1.1935177968761492 -1.9240751470864597 1.1935177968761492 -1.9643474800830094 Z" fill="#efc307" transform="matrix(1,0,0,1,0,0)" fill-rule="nonzero"></path></g><g clip-path="url(#SvgjsClipPath100071741875-31e0-4dba-90fc-38526f302ab9)"><path d=" M 1.0893546656565616 -1.9335280937339072 C 1.0656191381824094 -1.9306501483602894 1.0421864614558898 -1.9256677388359487 1.0193333535048112 -1.9186397027641782 C 1.024171037965564 -1.8881956540025473 1.0262840495691108 -1.8574735773983448 1.0279939208009283 -1.826612486872857 C 1.0474558697809662 -1.8293927652985773 1.0669919595190231 -1.8318718468948432 1.0866021900150993 -1.8340497316616573 C 1.0883537654233024 -1.8671628477119784 1.089438074009333 -1.9003732735072 1.0893546656565616 -1.9335280937339072 Z" fill="#efc307" transform="matrix(1,0,0,1,0,0)" fill-rule="nonzero"></path></g><g clip-path="url(#SvgjsClipPath100071741875-31e0-4dba-90fc-38526f302ab9)"><path d=" M 0.9944776643788777 -1.9119531331503223 C 0.9731221238826421 -1.9071747623010706 0.9521986357739782 -1.9006373346831196 0.9319213998001856 -1.8924077758175128 C 0.9313792455071696 -1.8673157630253923 0.9324496527010718 -1.8423627641545592 0.9343680448148184 -1.8172429485781811 C 0.9537048812656986 -1.8195366782794005 0.9731112246772219 -1.8219138163333906 0.9923507513832023 -1.8246801933669818 C 0.9927955959313172 -1.8538175112685233 0.9937130878118049 -1.882885322209423 0.9944776643788777 -1.9119531331503223 Z" fill="#efc307" transform="matrix(1,0,0,1,0,0)" fill-rule="nonzero"></path></g><g clip-path="url(#SvgjsClipPath100071741875-31e0-4dba-90fc-38526f302ab9)"><path d=" M 0.8372529194044303 -1.8696929010793828 C 0.8354457384277124 -1.8492717560424716 0.8356403579175129 -1.8287811040449182 0.8355708509568698 -1.8081931423024642 C 0.8575813884938172 -1.8101115344162113 0.8795409542596264 -1.8126647567704968 0.9014495482542975 -1.815852809365322 C 0.9028396874671574 -1.838553782711323 0.9038961932689308 -1.8613381644100957 0.9048970935021898 -1.8840391377560977 C 0.882043204842774 -1.8808974231350333 0.8591893161833585 -1.8770606389075404 0.8372529194044303 -1.8696929010793828 Z" fill="#efc307" transform="matrix(1,0,0,1,0,0)" fill-rule="nonzero"></path></g><g clip-path="url(#SvgjsClipPath100071741875-31e0-4dba-90fc-38526f302ab9)"><path d=" M 0.7572504077043465 -1.8473394625365973 C 0.7565692394900451 -1.8317699033525674 0.7561800005104444 -1.8162003441685366 0.7558602684914867 -1.800477869671092 C 0.7764899344103267 -1.802850373927706 0.7971196003291666 -1.805487004634763 0.8177492662480066 -1.8083877617922641 C 0.8181385052276071 -1.8254030657576683 0.8186806595206226 -1.8423627641545592 0.8188335748340372 -1.8593085611593199 C 0.7977034587985676 -1.8587525054741763 0.7771711026246281 -1.854220651640253 0.7572504077043465 -1.8473394625365973 Z" fill="#efc307" transform="matrix(1,0,0,1,0,0)" fill-rule="nonzero"></path></g><g clip-path="url(#SvgjsClipPath100071741875-31e0-4dba-90fc-38526f302ab9)"><path d=" M 0.5284612960518745 -1.7028761955362022 C 1.1750011425608564 -1.6981775249967361 1.8216382988147386 -1.6987891862503948 2.467844511912634 -1.6767137755501804 C 3.001101913965667 -1.6672469275106052 3.5414490260042863 -1.6524697476779049 4.051741328260875 -1.4812184980457017 C 4.018141663486054 -1.570729561961746 3.9762706703947153 -1.6568625875905418 3.9372216599054815 -1.7440660204132397 C 3.4684528159370163 -1.9046966064591935 2.968656064737519 -1.8412645541763992 2.483497479449436 -1.8251389393072248 C 1.8314109774811433 -1.8046621887017995 1.179936136766509 -1.770228440399261 0.5283083807384603 -1.7383108440719992 C 0.5283917890912315 -1.7265780691154635 0.5283917890912315 -1.714775787198283 0.5284612960518745 -1.7028761955362022 Z" fill="#000000" transform="matrix(1,0,0,1,0,0)" fill-rule="nonzero"></path></g><g clip-path="url(#SvgjsClipPath100071741875-31e0-4dba-90fc-38526f302ab9)"><path d=" M 0.7401516953861706 -1.8425434822522306 C 0.7188269598609006 -1.8374833755174214 0.6976551396490454 -1.8310470309618796 0.6787909505305374 -1.8196200866321726 C 0.6794860201369672 -1.8124886724702014 0.68094566631047 -1.7982119427541305 0.6815712289562571 -1.7911639369449315 C 0.7014363183080241 -1.7933881596855072 0.7213848160125629 -1.7957652977394973 0.74134721510923 -1.7978366051666592 C 0.7411247928351723 -1.8127667003127734 0.7406104413264142 -1.8277663024195303 0.7401516953861706 -1.8425434822522306 Z" fill="#efc307" transform="matrix(1,0,0,1,0,0)" fill-rule="nonzero"></path></g><g clip-path="url(#SvgjsClipPath100071741875-31e0-4dba-90fc-38526f302ab9)"><path d=" M 0.5375945106803636 -1.7890926295177696 C 0.5350644573129586 -1.7841854380963746 0.5300043505781488 -1.7742042385480405 0.527474297210744 -1.769297047126646 C 0.5757816348576235 -1.7749827165072425 0.6241862822494029 -1.7803486538688813 0.6725075212884108 -1.7859787176809645 C 0.6703528055084782 -1.7955706782496965 0.6683371036498313 -1.8050792304656578 0.6662101906541558 -1.814587782681619 C 0.6223373970962993 -1.811195843002241 0.5814673042382201 -1.7918451051592323 0.5375945106803636 -1.7890926295177696 Z" fill="#efc307" transform="matrix(1,0,0,1,0,0)" fill-rule="nonzero"></path></g><g clip-path="url(#SvgjsClipPath100071741875-31e0-4dba-90fc-38526f302ab9)"><path d=" M 5.092760979203092 -1.7137748869650244 C 5.13493780292126 -1.7129269020451798 5.1336310720611715 -1.6422105202869992 5.091454248343004 -1.643128012167487 C 5.050042001191909 -1.6482715272550688 5.050417338779381 -1.7110085099314327 5.092760979203092 -1.7137748869650244 Z" fill="#efc307" transform="matrix(1,0,0,1,0,0)" fill-rule="nonzero"></path></g><g clip-path="url(#SvgjsClipPath100071741875-31e0-4dba-90fc-38526f302ab9)"><path d=" M 4.564160543513139 -1.7084089496033847 C 4.604349468156917 -1.7276484763093647 4.631040141043826 -1.6578634878238012 4.590573188557475 -1.641598859033341 C 4.55195512122423 -1.628865183843545 4.527446966901511 -1.6907680829921934 4.564160543513139 -1.7084089496033847 Z" fill="#efc307" transform="matrix(1,0,0,1,0,0)" fill-rule="nonzero"></path></g></g><g><path d=" M 0.79425 0.06674999999999986 Q 0.9195 0.13349999999999984 0.987 0.25349999999999984 Q 1.0545 0.37349999999999983 1.0545 0.5279999999999999 Q 1.0545 0.6809999999999998 0.9862500000000001 0.8009999999999999 Q 0.918 0.9209999999999998 0.7927500000000001 0.9892499999999999 Q 0.6675 1.0574999999999999 0.5025000000000001 1.0574999999999999 L 0.084 1.0574999999999999 L 0.084 -2.220446049250313e-16 L 0.5025000000000001 -2.220446049250313e-16 Q 0.669 -2.220446049250313e-16 0.79425 0.06674999999999986 M 0.6825 0.7274999999999998 Q 0.756 0.6569999999999998 0.756 0.5279999999999999 Q 0.756 0.39749999999999985 0.6825 0.3262499999999998 Q 0.609 0.2549999999999999 0.48 0.2549999999999999 L 0.378 0.2549999999999999 L 0.378 0.7979999999999998 L 0.48 0.7979999999999998 Q 0.609 0.7979999999999998 0.6825 0.7274999999999998 M 2.00622802734375 0.6067499999999999 Q 2.06097802734375 0.6779999999999999 2.06097802734375 0.7694999999999999 Q 2.06097802734375 0.9044999999999999 1.9679780273437502 0.9809999999999999 Q 1.87497802734375 1.0574999999999999 1.7069780273437503 1.0574999999999999 L 1.1834780273437502 1.0574999999999999 L 1.1834780273437502 -2.220446049250313e-16 L 1.69047802734375 -2.220446049250313e-16 Q 1.85247802734375 -2.220446049250313e-16 1.9447280273437502 0.07199999999999984 Q 2.03697802734375 0.1439999999999999 2.03697802734375 0.27449999999999986 Q 2.03697802734375 0.3674999999999998 1.9882280273437503 0.42974999999999985 Q 1.9394780273437502 0.4919999999999999 1.8584780273437502 0.5144999999999998 Q 1.9514780273437502 0.5354999999999999 2.00622802734375 0.6067499999999999 M 1.47747802734375 0.4199999999999998 L 1.62597802734375 0.4199999999999998 Q 1.73697802734375 0.4199999999999998 1.73697802734375 0.3284999999999999 Q 1.73697802734375 0.23399999999999987 1.62597802734375 0.23399999999999987 L 1.47747802734375 0.23399999999999987 L 1.47747802734375 0.4199999999999998 M 1.75947802734375 0.7274999999999998 Q 1.75947802734375 0.6794999999999999 1.7302280273437503 0.6539999999999999 Q 1.70097802734375 0.6284999999999998 1.6469780273437502 0.6284999999999998 L 1.47747802734375 0.6284999999999998 L 1.47747802734375 0.8204999999999999 L 1.6484780273437503 0.8204999999999999 Q 1.75947802734375 0.8204999999999999 1.75947802734375 0.7274999999999998 M 2.9865087890625 0.696 L 2.4300087890624997 0.696 Q 2.4345087890625 0.7649999999999999 2.4682587890625 0.7987499999999998 Q 2.5020087890625 0.8324999999999999 2.5545087890625 0.8324999999999999 Q 2.6280087890624997 0.8324999999999999 2.6595087890624995 0.7665 L 2.9730087890625 0.7665 Q 2.9535087890625 0.8534999999999999 2.8972587890624997 0.9217499999999998 Q 2.8410087890624998 0.9899999999999999 2.7555087890624996 1.029 Q 2.6700087890625 1.0679999999999998 2.5665087890624996 1.0679999999999998 Q 2.4420087890624997 1.0679999999999998 2.3452587890624996 1.0154999999999998 Q 2.2485087890625 0.9629999999999999 2.1937587890624997 0.8654999999999999 Q 2.1390087890625 0.7679999999999999 2.1390087890625 0.6359999999999999 Q 2.1390087890625 0.5039999999999999 2.1930087890624996 0.4072499999999999 Q 2.2470087890625 0.3104999999999999 2.3437587890624996 0.2579999999999999 Q 2.4405087890624997 0.2054999999999999 2.5665087890624996 0.2054999999999999 Q 2.6910087890625 0.2054999999999999 2.7870087890625 0.25649999999999984 Q 2.8830087890625 0.3074999999999999 2.9370087890625 0.40274999999999983 Q 2.9910087890624997 0.4979999999999999 2.9910087890624997 0.6269999999999999 Q 2.9910087890624997 0.6614999999999999 2.9865087890625 0.696 M 2.6910087890625 0.5534999999999999 Q 2.6910087890625 0.49949999999999983 2.6550087890625 0.4687499999999999 Q 2.6190087890625 0.43799999999999983 2.5650087890625 0.43799999999999983 Q 2.5110087890624997 0.43799999999999983 2.4765087890624997 0.46724999999999983 Q 2.4420087890624997 0.49649999999999983 2.4315087890625 0.5534999999999999 L 2.6910087890625 0.5534999999999999 M 3.6045505371093745 0.8069999999999999 L 3.6045505371093745 1.0574999999999999 L 3.4770505371093745 1.0574999999999999 Q 3.1545505371093747 1.0574999999999999 3.1545505371093747 0.7379999999999999 L 3.1545505371093747 0.4604999999999999 L 3.051050537109375 0.4604999999999999 L 3.051050537109375 0.21599999999999986 L 3.1545505371093747 0.21599999999999986 L 3.1545505371093747 0.011999999999999789 L 3.450050537109375 0.011999999999999789 L 3.450050537109375 0.21599999999999986 L 3.6030505371093744 0.21599999999999986 L 3.6030505371093744 0.4604999999999999 L 3.450050537109375 0.4604999999999999 L 3.450050537109375 0.7424999999999999 Q 3.450050537109375 0.7769999999999999 3.4658005371093745 0.7919999999999998 Q 3.4815505371093747 0.8069999999999999 3.5190505371093748 0.8069999999999999 L 3.6045505371093745 0.8069999999999999 M 4.233081298828124 0.8069999999999999 L 4.233081298828124 1.0574999999999999 L 4.105581298828125 1.0574999999999999 Q 3.7830812988281246 1.0574999999999999 3.7830812988281246 0.7379999999999999 L 3.7830812988281246 0.4604999999999999 L 3.6795812988281247 0.4604999999999999 L 3.6795812988281247 0.21599999999999986 L 3.7830812988281246 0.21599999999999986 L 3.7830812988281246 0.011999999999999789 L 4.078581298828125 0.011999999999999789 L 4.078581298828125 0.21599999999999986 L 4.231581298828124 0.21599999999999986 L 4.231581298828124 0.4604999999999999 L 4.078581298828125 0.4604999999999999 L 4.078581298828125 0.7424999999999999 Q 4.078581298828125 0.7769999999999999 4.094331298828124 0.7919999999999998 Q 4.110081298828124 0.8069999999999999 4.147581298828125 0.8069999999999999 L 4.233081298828124 0.8069999999999999 M 5.164612060546874 0.696 L 4.608112060546874 0.696 Q 4.612612060546875 0.7649999999999999 4.646362060546874 0.7987499999999998 Q 4.6801120605468745 0.8324999999999999 4.732612060546875 0.8324999999999999 Q 4.806112060546875 0.8324999999999999 4.837612060546874 0.7665 L 5.1511120605468745 0.7665 Q 5.131612060546875 0.8534999999999999 5.075362060546874 0.9217499999999998 Q 5.019112060546874 0.9899999999999999 4.933612060546874 1.029 Q 4.848112060546875 1.0679999999999998 4.744612060546874 1.0679999999999998 Q 4.620112060546875 1.0679999999999998 4.523362060546875 1.0154999999999998 Q 4.426612060546875 0.9629999999999999 4.371862060546874 0.8654999999999999 Q 4.317112060546874 0.7679999999999999 4.317112060546874 0.6359999999999999 Q 4.317112060546874 0.5039999999999999 4.371112060546874 0.4072499999999999 Q 4.425112060546875 0.3104999999999999 4.521862060546875 0.2579999999999999 Q 4.618612060546875 0.2054999999999999 4.744612060546874 0.2054999999999999 Q 4.8691120605468745 0.2054999999999999 4.965112060546875 0.25649999999999984 Q 5.061112060546875 0.3074999999999999 5.115112060546874 0.40274999999999983 Q 5.169112060546874 0.4979999999999999 5.169112060546874 0.6269999999999999 Q 5.169112060546874 0.6614999999999999 5.164612060546874 0.696 M 4.8691120605468745 0.5534999999999999 Q 4.8691120605468745 0.49949999999999983 4.833112060546874 0.4687499999999999 Q 4.7971120605468744 0.43799999999999983 4.743112060546874 0.43799999999999983 Q 4.689112060546875 0.43799999999999983 4.654612060546874 0.46724999999999983 Q 4.620112060546875 0.49649999999999983 4.6096120605468744 0.5534999999999999 L 4.8691120605468745 0.5534999999999999 M 5.7001538085937495 0.25049999999999983 Q 5.7706538085937495 0.2084999999999999 5.851653808593749 0.2084999999999999 L 5.851653808593749 0.5219999999999999 L 5.7691538085937495 0.5219999999999999 Q 5.673153808593749 0.5219999999999999 5.626653808593749 0.5594999999999999 Q 5.580153808593749 0.5969999999999999 5.580153808593749 0.69 L 5.580153808593749 1.0574999999999999 L 5.286153808593749 1.0574999999999999 L 5.286153808593749 0.21599999999999986 L 5.580153808593749 0.21599999999999986 L 5.580153808593749 0.3644999999999998 Q 5.6296538085937495 0.29249999999999987 5.7001538085937495 0.25049999999999983" fill="#829174" fill-rule="nonzero"></path></g><g></g></g><defs><clipPath id="SvgjsClipPath1001"><path d=" M 0.3933953701304125 -5.2127233380394244 h 5.085895294895426 v 4.9627233380394244 h -5.085895294895426 Z"></path></clipPath><clipPath id="SvgjsClipPath100071741875-31e0-4dba-90fc-38526f302ab9"><path d=" M 0.3933953701304125 -5.212723338039424 L 5.479290665025839 -5.212723338039424 L 5.479290665025839 -0.25 L 0.3933953701304125 -0.25 Z"></path></clipPath></defs></svg>